<?xml version="1.0" encoding="UTF-8"?>
<svg id="Layer_1" data-name="Layer 1" xmlns="http://www.w3.org/2000/svg" viewBox="0 0 1000 1000">
  <defs>
    <style>
      .cls-1 {
        fill: #1e88e5;
      }

      .cls-2 {
        fill: #101047;
      }

      .cls-3 {
        fill: #07076d;
      }
    </style>
  </defs>
  <g>
    <path class="cls-1" d="M688.9156087482,465.1344818386c0-19.0644315711-5.906354491-34.1732250577-17.7732687441-45.353651435-7.6641540006-7.2247882928-17.1416594969-12.1143731-28.459450785-14.6414834466-6.1807476341-1.4285277378-12.9385625656-2.1426232674-20.272771437-2.1426232674h-89.8006271222v193.0886030963h37.9366196026v-154.3008597319h48.4026137716c1.5931636237,0,3.1314486188.0548786286,4.642462639.1649725646,8.4058571838.4945810151,14.9438209221,2.4722317179,19.5586759074,5.9608964409,5.4117734759,4.0930029953,8.1314640407,9.8343849217,8.1314640407,17.2241457792,0,7.5816677183-2.7196905648,13.405535927-8.1314640407,17.4985389223-.1922435396.1373649109-.3568794255.2743931432-.549122965.3844870791-5.4117734759,3.8182731734-13.3230496447,5.7413819264-23.6520155814,5.7413819264h-19.5314049325l-.5770672974.7689741582-15.5205515407,29.8054922406-4.120610649,7.9112761688h43.2110281676c14.2017810601,0,26.2888831853-2.6372042825,36.3431193002-7.9112761688,4.532368703-2.417689768,8.6805870057-5.384502501,12.3891029219-8.8731672239,7.8840051938-7.3894241788,13.1031984515-16.5645921995,15.7676737089-27.4426811013,1.3736491092-5.5215307332,2.0055950352-11.4551561991,2.0055950352-17.8830260014Z"/>
    <polygon class="cls-1" points="839.123128806 483.01750784 818.5204122399 421.6214528742 812.3120569521 402.9967236895 750.4762995999 402.9967236895 723.637956771 483.01750784 711.4687050423 519.3333561652 685.728944822 596.0853267858 726.2751610534 596.0853267858 741.1092247183 549.9899721675 751.0533668972 519.3333561652 762.8381315468 483.01750784 781.4079821028 425.7420635232 794.8411256835 467.1946188237 799.9778326588 483.01750784 811.7902049621 519.3333561652 811.9824485016 519.9649654124 767.4253788785 519.9649654124 751.8223410554 549.9899721675 821.6245898838 549.9899721675 836.5135321772 596.0853267858 877.032140755 596.0853267858 851.2923805347 519.3333561652 839.123128806 483.01750784"/>
    <rect class="cls-1" x="888.9953451173" y="402.988306722" width="37.9090119489" height="28.5688713636"/>
    <rect class="cls-1" x="890.176750687" y="450.2371225775" width="35.2714709877" height="145.8397872407"/>
    <path class="cls-1" d="M395.3954117962,511.7237441144l-3.9556380844,7.6096120507h67.8791400754c-.9763682394,1.7901206651-1.0433673013,3.9677585177-1.4494018174,5.9369922529-1.2106966169,5.8720132632-3.8155797439,11.2878268836-7.3412791242,16.1215230261-2.0601369851,2.8018401683-4.2576388812,5.2468009113-6.5103560846,7.3621532038-3.6536372876,3.378570787-7.609275372,5.8784101586-11.8672509319,7.499181436-6.8948431637,2.6372042825-14.9162132684,3.9556380844-24.0637736355,3.9556380844-12.0871021251,0-22.4433390368-2.7193538861-31.0690474139-8.1860059906-.6316092473-.4120947328-1.2911628269-.8241894655-1.8955010993-1.291162827-7.7190326292-5.2468009113-13.6799290701-12.1143731001-17.9655122837-20.5751089125-1.7305285347-3.461393748-3.1041776439-7.0598157283-4.1754892776-10.8232102731-1.7854071633-6.1810843128-2.6644752575-12.8011976547-2.6644752575-19.8061347543,0-5.8238682087.6316092473-11.3177912882,1.8402857919-16.5097135709,1.153797916-5.0545573718,2.8843264507-9.806777268,5.1646513077-14.2569963675,4.669733614-9.0378031098,11.3726699168-16.2625914027,20.1081355511-21.7292435072,8.763073288-5.4390444509,19.1741888283-8.1583983369,31.2336832997-8.1583983369,8.7354656343,0,16.37234866,1.0164330051,22.9927986805,3.0765699902,2.4173530893.7417031832,4.642462639,1.6207712774,6.7302072778,2.6095966288,7.9937624511,3.7910021985,14.9162132684,10.6585743872,20.7400814771,20.5754455912l.3568794254-.3848237578,12.6365617688-12.910954912,12.3891029219-12.6638327437c-7.0325447533-10.6033590799-15.3835233085-19.1741888283-25.0256646907-25.7121525666-1.3184338019-.9066757478-2.6372042825-1.7581361883-4.010516713-2.5823256539-1.8955010993-1.1261902623-3.9007594557-2.1702309211-6.0709903769-3.0765699902-4.5872473317-2.0328660101-9.806777268-3.6536372876-15.5481591944-4.8070985249-7.7190326292-1.5658926488-16.5093768922-2.3352034856-26.3713694675-2.3352034856-3.3240288371,0-6.5928423669.1373649109-9.8071139467.4120947327-4.5050977281.3572161042-8.8179519166,1.0164330051-12.9931045155,1.9231087529-10.02696514,2.1150156138-19.1469178534,5.7686529014-27.5255040622,10.9329675304-11.5649134564,7.1971806392-21.0696899276,16.3996196349-28.3493568491,27.6352613195-.4942443364.7417031832-.9888253514,1.4830696878-1.4009200842,2.2523805247-.1373649109.2198511932-.3020007968.4669733614-.4669733614.7144322083-1.0164330051,1.6756499061-1.9503797279,3.378570787-2.8843264507,5.1367069754-5.3568948473,10.3289659368-8.8455595703,21.4545136854-10.5212094763,33.3490355922-.2471221682,1.9779873815-.4669733614,3.983245738-.6043382723,5.9885040945-.1097572573,1.0164330051-.1922435395,2.0328660102-.2471221682,3.0492990153-.0276076537.6316092473-.1097572573,1.2635551733-.1373649109,1.8955010993-.0548786286,1.7854071633-.1373649109,3.5708143266-.1373649109,5.3565581686v.3296084505c0,1.0989192874.0548786286,2.197501896.0824862823,3.2964211834.0272709749,1.0164330051.0272709749,2.0328660102.0824862823,3.0216913616.0545419499.5770672973.1097572573,1.153797916.1097572573,1.7308652133.2747298218,3.9556380844.6868245546,7.8563975402,1.3460414556,11.6473997387,1.7581361883,10.6582377085,4.9993420644,20.7124738234,9.7791696144,30.0798853837,2.3742582153,4.6761305093,5.1693648096,8.9310759609,8.165131911,13.0011848044,1.5241444896,2.1267993684,3.1001374995,4.2024235739,4.7734306546,6.173004024,5.6040170154,6.3729911736,12.1419807537,11.8672509319,19.5590125861,16.5369845458.2198511932.137364911.4669733614.2747298219.6868245546.4120947328,8.0762487334,4.9724077681,17.0315655609,8.4883434661,26.9208291112,10.54881713,4.9444634358,1.0713116337,10.1363857185,1.7581361883,15.5757668481,2.0877446388,5.3838291435-.1373649109,10.6582377085-.8517971192,15.7127950803-2.0877446388,1.675649906-.3848237578,3.2691502085-.8517971192,4.9171924609-1.3736491092,15.2734293726-4.8074352036,28.8439378641-14.4219689321,39.3648106617-27.3605314977v28.7341806069h37.5521325235v-113.0678189458h-85.98201727l-15.6582531304,28.7062362745Z"/>
  </g>
  <g>
    <path class="cls-3" d="M152.5746591542,456.5862355168l-.0075433544-.6147833843c0-11.5696198232,9.4122204625-20.9818402857,20.9818402857-20.9818402857h7.7243949137v-28.6873768134h-7.7243949137c-27.3880340167,0-49.6692170992,22.2811830825-49.6692170992,49.6692170991,0,.4808888435.0037716772.9862935888.0207442246,1.2276809299.6468426405,26.7110179586,22.91859653,48.4415361693,49.6484728746,48.4415361693,26.7317621832,0,49.0035160727-21.7305182107,49.6484728745-48.4415361693l.1904696988-7.9110929353h-28.6025140764l-.2659032429,7.4490624779c-.4054552994,11.3376616751-9.6177768701,20.2180756519-20.9705252541,20.2180756519s-20.5631841161-8.8804139768-20.9742969313-20.3689427401Z"/>
    <path class="cls-2" d="M238.6008671706,447.6965501297l-.1564343658,9.4047406818c-.5883800029,35.172049064-29.7015159416,63.7855289684-64.8945785771,63.7855289684-35.204736842,0-64.3272121457-28.6158147457-64.9296011963-64.1544338909l-.0093393651-.7611582578c0-35.7954516862,29.1318146689-64.9155921486,64.9389405615-64.9155921486h9.5635098889v-35.5152707324h-9.5635098889c-55.3917745615,0-100.4542112938,45.0530973672-100.4542112938,100.4308628811,0,.5953845268.0046696826,1.2211219902.0233484128,1.4195834991.7471492101,54.5955936846,45.8002465773,99.0136142232,100.430862881,99.0136142232,54.6166072561,0,99.6603652581-44.4180205386,100.4098493095-99.0136142232l.133085953-9.6942610006h-35.4919223196Z"/>
    <circle class="cls-3" cx="173.539976727" cy="455.9735275468" r="7.4172740899"/>
    <rect class="cls-3" x="129.1884707545" y="564.9040803315" width="88.8114909815" height="34.538377894" rx="3.017191741" ry="3.017191741"/>
    <rect class="cls-3" x="139.8900037922" y="609.9212580505" width="67.4876292291" height="34.5383770314" rx="3.01719167" ry="3.01719167"/>
  </g>
</svg>